<svg width="165" height="48" viewBox="0 0 165 48" fill="none" xmlns="http://www.w3.org/2000/svg">
<path d="M47.1793 13.252H45.6172V33.7993H47.1793V13.252Z" fill="white"/>
<path d="M59.5485 19.7793L59.515 21.4366C58.8719 20.3206 57.7738 19.6105 56.1834 19.6105C53.6985 19.6105 51.8555 21.5036 51.8555 24.3272C51.8555 27.1172 53.6985 28.9769 56.1834 28.9769C57.7725 28.9769 58.8719 28.2668 59.515 27.1508L59.5485 28.8081H61.2227V19.7793H59.5485ZM56.5726 27.4897C54.8146 27.4897 53.647 26.2216 53.647 24.3117C53.647 22.3838 54.8134 21.0989 56.5726 21.0989C58.3138 21.0989 59.4983 22.3838 59.4983 24.295C59.497 26.2216 58.3138 27.4897 56.5726 27.4897Z" fill="white"/>
<path d="M67.2263 28.9769C68.5448 28.9769 69.7292 28.5709 70.5747 27.759L69.5771 26.5928C69.0023 27.201 68.2071 27.4884 67.3114 27.4884C65.5199 27.4884 64.3354 26.2036 64.3354 24.2924C64.3354 22.3825 65.5186 21.0964 67.2946 21.0964C68.1066 21.0964 68.7317 21.3335 69.3065 21.8065L70.2873 20.6221C69.4586 19.9803 68.461 19.6079 67.2779 19.6079C64.4372 19.6079 62.5439 21.4843 62.5439 24.2911C62.5427 27.1005 64.4205 28.9769 67.2263 28.9769Z" fill="white"/>
<path d="M78.4548 19.7793L78.4213 21.4366C77.7782 20.3206 76.6801 19.6105 75.0896 19.6105C72.6048 19.6105 70.7617 21.5036 70.7617 24.3272C70.7617 27.1172 72.6048 28.9769 75.0896 28.9769C76.6788 28.9769 77.7782 28.2668 78.4213 27.1508L78.4548 28.8081H80.129V19.7793H78.4548ZM75.4789 27.4897C73.7209 27.4897 72.5532 26.2216 72.5532 24.3117C72.5532 22.3838 73.7196 21.0989 75.4789 21.0989C77.2201 21.0989 78.4045 22.3838 78.4045 24.295C78.4045 26.2216 77.2214 27.4897 75.4789 27.4897Z" fill="white"/>
<path d="M89.0927 15.6206V21.4198C88.4496 20.3038 87.3682 19.6105 85.7791 19.6105C83.2942 19.6105 81.4512 21.5036 81.4512 24.3272C81.4512 27.1173 83.2942 28.9769 85.7791 28.9769C87.3682 28.9769 88.4676 28.2668 89.1107 27.1508L89.1442 28.8081H90.8185V15.6206H89.0927ZM86.167 27.4897C84.4091 27.4897 83.2414 26.2216 83.2414 24.3117C83.2414 22.3838 84.4078 21.0989 86.167 21.0989C87.9083 21.0989 89.0927 22.3838 89.0927 24.295C89.0927 26.2216 87.9083 27.4897 86.167 27.4897Z" fill="white"/>
<path d="M100.896 24.1751C100.896 21.4366 99.1543 19.6105 96.5328 19.6105C93.8945 19.6105 92.1533 21.5036 92.1533 24.3272C92.1533 27.1172 93.9448 28.9769 96.5998 28.9769C98.2573 28.9769 99.6428 28.25 100.488 26.9987L99.1698 26.2886C98.5447 27.1005 97.6644 27.607 96.5831 27.607C95.0107 27.607 94.1484 26.5592 93.9796 24.9187H100.861C100.896 24.7164 100.896 24.3955 100.896 24.1751ZM96.5341 20.9804C98.0227 20.9804 98.9687 22.0114 99.1208 23.7357H93.9809C94.133 22.0281 95.0455 20.9804 96.5341 20.9804Z" fill="white"/>
<path d="M112.632 19.6105C111.28 19.6105 110.197 20.202 109.605 21.2162C109.047 20.2187 108.016 19.6105 106.696 19.6105C105.462 19.6105 104.464 20.1169 103.873 21.0139L103.839 19.7793H102.182V28.8068H103.906V23.4302C103.906 22.0268 104.785 21.0977 106.122 21.0977C107.458 21.0977 108.337 22.0268 108.337 23.4302V28.8068H110.062V23.4302C110.062 22.0268 110.957 21.0977 112.294 21.0977C113.63 21.0977 114.509 22.0268 114.509 23.4302V28.8068H116.234V23.1274C116.234 21.0139 114.797 19.6105 112.632 19.6105Z" fill="white"/>
<path d="M124.369 19.7793V25.1726C124.369 26.5592 123.422 27.4884 122.001 27.4884C120.581 27.4884 119.634 26.5592 119.634 25.1726V19.7793H117.909V25.46C117.909 27.5735 119.313 28.9769 121.427 28.9769C122.728 28.9769 123.743 28.4704 124.369 27.5567V28.0129C124.369 29.9408 123.186 31.2089 121.393 31.2089C120.125 31.2089 119.094 30.8545 118.197 30.1612L117.824 31.5311C118.753 32.3082 119.988 32.6974 121.442 32.6974C124.232 32.6974 126.092 30.8545 126.092 28.0657V19.7819H124.369V19.7793Z" fill="white"/>
<path fill-rule="evenodd" clip-rule="evenodd" d="M13.1358 28.4781C12.9838 28.1005 12.8459 27.7075 12.7363 27.3028C11.1149 21.4713 14.2945 15.4453 19.9074 13.4117C17.3645 12.73 15.6903 12.0482 15.6903 11.0405C15.6903 10.0121 17.4805 9.64092 20.2129 9.64092C24.4248 9.64092 28.4524 10.6539 32.4749 12.6823C34.0176 9.78784 36.1545 7.17561 38.825 5.04664C33.0226 0.563196 25.2419 -1.22554 17.6223 0.877642C7.38633 3.70509 0.531001 12.7094 0 22.7201C2.75296 25.38 7.01257 27.0051 12.204 28.2526L13.1358 28.4781ZM32.8744 36.7646C32.2003 35.5944 31.6268 34.3998 31.1628 33.1781C29.9629 34.1485 28.5516 34.8921 26.9677 35.3276C23.6296 36.2504 20.2283 35.6163 17.5437 33.8598C12.9477 33.7915 8.48829 32.9152 3.34454 30.4035C3.34454 30.4035 1.22826 29.2655 0.402117 28.4949C0.518113 29.1354 0.665041 29.7694 0.844189 30.4086C4.39236 43.1785 17.6648 50.6621 30.4901 47.122C33.4118 46.314 36.0604 45.0085 38.361 43.31C36.2228 41.5161 34.3591 39.3175 32.8744 36.7646Z" fill="#33CEE0"/>
<path d="M128.854 24.3001C128.854 21.4958 130.872 19.6272 133.922 19.6272C135.152 19.6272 136.3 20.0692 137.153 20.7252L135.317 22.9392C135.022 22.6441 134.595 22.4314 133.988 22.4314C132.939 22.4314 132.249 23.1699 132.249 24.3014C132.249 25.4161 132.922 26.1713 133.988 26.1713C134.71 26.1713 135.234 25.9741 135.612 25.5153L137.465 27.6791C136.563 28.5644 135.284 28.9742 133.875 28.9742C130.856 28.973 128.854 27.1043 128.854 24.3001Z" fill="white"/>
<path d="M138.482 16.0188H141.763V28.8093H138.482V16.0188Z" fill="white"/>
<path d="M152.373 19.7896V28.808H149.224L149.175 27.9716C148.519 28.6598 147.617 28.9717 146.765 28.9717C144.814 28.9717 143.502 27.5773 143.502 25.429V19.7896H146.782V24.9547C146.782 25.6764 147.241 26.1674 147.946 26.1674C148.634 26.1674 149.094 25.6751 149.094 24.9547V19.7896H152.373Z" fill="white"/>
<path d="M164.198 24.349C164.198 27.1365 162.247 28.9729 159.901 28.9729C158.835 28.9729 157.999 28.5953 157.409 27.8904L157.376 28.808H154.211V16.0175H157.491V20.6246C158.081 19.9854 158.886 19.6246 159.901 19.6246C162.247 19.6259 164.198 21.528 164.198 24.349ZM160.82 24.3168C160.82 23.1853 160.147 22.4301 159.164 22.4301C158.164 22.4301 157.491 23.184 157.491 24.3C157.491 25.4315 158.164 26.17 159.164 26.17C160.147 26.1687 160.82 25.4148 160.82 24.3168Z" fill="white"/>
<path d="M24.1091 30.6715C26.1184 30.6715 27.9292 30.0761 29.1949 28.8106L27.2848 26.5785C26.5154 27.3968 25.4985 27.7693 24.2586 27.7693C21.9761 27.7693 20.4875 26.1571 20.4875 23.7266C20.4875 21.296 22.0006 19.6826 24.2328 19.6826C25.349 19.6826 26.1674 20.0305 26.8621 20.6259L28.7721 18.3436C27.5323 17.3758 25.9689 16.8062 24.1826 16.8062C19.8663 16.8062 16.9883 19.5846 16.9883 23.7266C16.9896 27.893 19.8418 30.6715 24.1091 30.6715Z" fill="white"/>
<path d="M34.8012 30.6715C38.1496 30.6715 40.3831 28.9845 40.3831 26.4548C40.3831 24.0977 38.5723 23.0564 36.2898 22.461L35.1737 22.1389C34.0086 21.8412 33.1644 21.4687 33.1644 20.6749C33.1644 19.9055 34.0086 19.4596 35.2226 19.4596C36.4135 19.4596 37.5541 19.7328 38.6213 20.3282L40.0352 18.1206C38.7205 17.2276 37.009 16.8062 34.9997 16.8062C31.824 16.8062 29.7412 18.5678 29.7412 21.2213C29.7412 23.3296 31.2788 24.1982 33.5368 24.7936L34.653 25.0913C35.9921 25.438 36.9355 25.8852 36.9355 26.7035C36.9355 27.5218 36.0926 28.0425 34.8515 28.0425C33.5368 28.0425 32.2712 27.795 31.0068 27.0502L29.7412 29.0838C30.9553 30.1508 32.7674 30.6715 34.8012 30.6715Z" fill="white"/>
</svg>
